<svg id="SvgjsSvg1019" width="288" height="288" xmlns="http://www.w3.org/2000/svg" version="1.1" xmlns:xlink="http://www.w3.org/1999/xlink" xmlns:svgjs="http://svgjs.com/svgjs"><defs id="SvgjsDefs1020"></defs><g id="SvgjsG1021"><svg xmlns="http://www.w3.org/2000/svg" viewBox="0 0 32 32" width="288" height="288"><path d="M4 15a1 1 0 0 0 1 1h19.586l-4.292 4.292a1 1 0 0 0 1.414 1.414l6-6a.99.99 0 0 0 .292-.702V15c0-.13-.026-.26-.078-.382a.99.99 0 0 0-.216-.324l-6-6a1 1 0 0 0-1.414 1.414L24.586 14H5a1 1 0 0 0-1 1z" fill="#ffffff" class="color000 svgShape"></path></svg></g></svg>